<?xml version="1.0" encoding="UTF-8"?>
<!DOCTYPE svg PUBLIC "-//W3C//DTD SVG 1.1//EN" "http://www.w3.org/Graphics/SVG/1.1/DTD/svg11.dtd">
<!-- Creator: CorelDRAW 2018 (64 Bit) -->
<svg xmlns="http://www.w3.org/2000/svg" xml:space="preserve" width="54.084mm" height="62.2784mm" version="1.1" style="shape-rendering:geometricPrecision; text-rendering:geometricPrecision; image-rendering:optimizeQuality; fill-rule:evenodd; clip-rule:evenodd"
viewBox="0 0 32036 36889.85"
 xmlns:xlink="http://www.w3.org/1999/xlink">
 <defs>
  <style type="text/css">
   <![CDATA[
    .fil0 {fill:#3E4095}
   ]]>
  </style>
 </defs>
 <g id="Capa_x0020_1">
  <metadata id="CorelCorpID_0Corel-Layer"/>
  <path class="fil0" d="M3237.01 7044.61l879.56 0c1782.94,0 3237.13,1213.46 3237.13,2701.3l0 17397.79c0,1487.83 -1454.19,2701.3 -3237.13,2701.3l-879.56 0c-1782.82,0 -3237.01,-1213.46 -3237.01,-2701.3l0 -17397.79c0,-1487.83 1454.19,-2701.3 3237.01,-2701.3zm12347.52 -7044.61l879.38 0c1783,0 3237.07,1454.07 3237.07,3237.07l0 30415.72c0,1783 -1454.07,3237.07 -3237.07,3237.07l-879.38 0c-1783.06,0 -3237.19,-1454.07 -3237.19,-3237.07l0 -30415.72c0,-1783 1454.13,-3237.07 3237.19,-3237.07zm12334.9 7044.85l879.44 0c1782.94,0 3237.01,1454.07 3237.01,3237.07l0 3992.42c0,1782.94 -1454.07,3237.07 -3237.01,3237.07l-879.44 0c-1782.94,0 -3237.13,-1454.13 -3237.13,-3237.07l0 -3992.42c0,-1783 1454.19,-3237.07 3237.13,-3237.07zm0.18 12333.6l879.38 0c1782.94,0 3237.01,1454.13 3237.01,3237.07l0 3992.42c0,1783 -1454.07,3237.19 -3237.01,3237.19l-879.38 0c-1783,0 -3237.19,-1454.19 -3237.19,-3237.19l0 -3992.42c0,-1782.94 1454.19,-3237.07 3237.19,-3237.07z"/>
 </g>
</svg>
